PathFileType	4	(X/Y/Z)	s01c0301.trc
DataRate	CameraRate	NumFrames	NumMarkers	Units	OrigDataRate	OrigDataStartFrame	OrigNumFrames
200	200	6	48	mm	200	0	2000
Frame#	Time	racr			lacr			c7			jug			rlel			rdr			llel			ldr			s2			lic			ric			lasi			rasi			rpsi			lpsi			rgt			lgt			rth1			rth2			rth3			rth4			rlfc			rsh1			rsh2			rsh3			rsh4			rlmal			rmmal			rcal			rtoe			rmt5			lth1			lth2			lth4			lth3			llfc			lsh1			lsh2			lsh3			lsh4			llmal			lmmal			lcal			ltoe			lmt5			SBIKE			LBIKE			RBIKE			
		X1	Y1	Z1	X2	Y2	Z2	X3	Y3	Z3	X4	Y4	Z4	X5	Y5	Z5	X6	Y6	Z6	X7	Y7	Z7	X8	Y8	Z8	X9	Y9	Z9	X10	Y10	Z10	X11	Y11	Z11	X12	Y12	Z12	X13	Y13	Z13	X14	Y14	Z14	X15	Y15	Z15	X16	Y16	Z16	X17	Y17	Z17	X18	Y18	Z18	X19	Y19	Z19	X20	Y20	Z20	X21	Y21	Z21	X22	Y22	Z22	X23	Y23	Z23	X24	Y24	Z24	X25	Y25	Z25	X26	Y26	Z26	X27	Y27	Z27	X28	Y28	Z28	X29	Y29	Z29	X30	Y30	Z30	X31	Y31	Z31	X32	Y32	Z32	X33	Y33	Z33	X34	Y34	Z34	X35	Y35	Z35	X36	Y36	Z36	X37	Y37	Z37	X38	Y38	Z38	X39	Y39	Z39	X40	Y40	Z40	X41	Y41	Z41	X42	Y42	Z42	X43	Y43	Z43	X44	Y44	Z44	X45	Y45	Z45	X46	Y46	Z46	X47	Y47	Z47	X48	Y48	Z48	
0	0.0000	504.812134	1345.756958	-114.757584	511.942139	1348.446899	-394.738800	454.211792	1385.558594	-246.299759	469.176117	1225.031982	-251.264587	589.796814	1072.760132	-49.088348	728.387695	847.304016	-84.866058	596.331055	1075.756714	-454.624176	0.000000	0.000000	-0.000000	-65.480980	1155.491821	-243.366013	112.418510	1156.804321	-407.020630	102.018219	1124.094604	-93.106438	99.248932	1100.912109	-397.711182	114.135658	1075.097900	-119.243088	-26.565727	1182.030029	-190.021210	-32.244461	1194.386230	-295.507507	23.405071	1015.213135	-66.395439	32.594955	1046.962646	-459.191467	94.962280	895.513489	-48.778248	148.380707	832.129517	-53.637798	202.129272	760.065002	-66.282326	192.210739	865.876587	-64.182747	242.916992	662.451355	-88.532021	161.279343	575.425110	-60.077614	115.492050	504.243286	-65.544693	59.507683	435.787933	-80.708298	154.060394	478.397522	-103.804543	-17.717421	333.767151	-102.808945	32.676300	343.433960	-179.574371	-68.509987	307.751587	-159.060333	193.717575	245.362350	-132.249863	82.847794	233.382690	-68.358856	128.287659	964.194519	-459.557526	216.272644	949.302795	-462.690033	226.872437	1002.786438	-453.657562	297.987732	926.835205	-445.577179	395.831970	862.358398	-419.438263	328.450897	770.331604	-443.148926	300.863556	688.184631	-437.356476	271.722687	608.377563	-421.144501	355.584747	672.240295	-412.960602	235.981369	484.976715	-403.086395	264.833160	497.416077	-319.738190	190.126617	435.553009	-365.671295	465.347748	468.347717	-368.252411	367.901245	428.758057	-437.210510	-224.001190	893.218079	-249.653885	-11.902228	84.951759	-453.924774	-20.335459	81.030685	-53.546288	
1	0.0050	504.865784	1345.750366	-114.832642	511.976654	1348.469849	-394.763611	454.211334	1385.557861	-246.296036	469.213989	1225.044800	-251.295288	589.824890	1072.785156	-49.112865	728.393494	847.305481	-84.889671	596.345764	1075.748535	-454.645844	0.000000	0.000000	-0.000000	-65.468796	1155.493774	-243.379669	112.491798	1156.785645	-407.011414	102.034554	1124.086792	-93.120895	99.242523	1100.890503	-397.712524	114.152679	1075.079468	-119.262230	-26.565039	1182.027710	-190.024231	-32.207138	1194.380127	-295.550232	23.443638	1015.189636	-66.409859	32.609722	1046.953857	-459.189850	95.005188	895.529541	-48.816570	148.404709	832.143066	-53.655472	202.158417	760.075195	-66.292770	192.239517	865.883728	-64.209488	242.954529	662.474182	-88.535805	161.316513	575.435852	-60.084969	115.498421	504.255798	-65.545631	59.505192	435.828308	-80.682228	154.078354	478.417664	-103.831894	-17.704803	333.789154	-102.822029	32.613682	343.424164	-179.594360	-68.497765	307.785095	-159.062057	193.687485	245.397263	-132.226013	82.838249	233.413574	-68.353943	128.299088	964.209534	-459.572632	216.281494	949.331055	-462.732086	226.702011	1002.619324	-453.521729	297.978363	926.848022	-445.597961	395.839569	862.370178	-419.463806	328.486725	770.333435	-443.133057	300.914978	688.207947	-437.347534	271.769379	608.387085	-421.132263	355.640564	672.262695	-412.963287	236.035629	484.982208	-403.087463	264.860016	497.413757	-319.738525	190.167999	435.598297	-365.663239	465.380188	468.304230	-368.247894	367.955353	428.739014	-437.209961	-223.990936	893.218872	-249.674911	-11.895655	84.946548	-453.911835	-20.318129	81.005600	-53.545956	
2	0.0100	504.910370	1345.759888	-114.868629	512.013062	1348.486694	-394.755219	454.222290	1385.569336	-246.331894	469.272705	1225.053101	-251.336685	589.851624	1072.796265	-49.150993	728.385315	847.307068	-84.878654	596.370728	1075.740723	-454.663757	0.000000	0.000000	-0.000000	-65.456764	1155.488281	-243.382431	112.445473	1156.742188	-406.965576	102.040482	1124.085449	-93.128067	99.240593	1100.873413	-397.690735	114.160606	1075.063965	-119.250221	-26.552456	1182.024048	-190.025085	-32.248249	1194.390503	-295.528442	23.442274	1015.185486	-66.408875	32.620251	1046.953125	-459.177399	95.027504	895.534912	-48.828373	148.423904	832.157532	-53.649303	202.201950	760.082153	-66.294373	192.259415	865.902710	-64.223572	242.987961	662.490967	-88.538940	161.351868	575.463867	-60.090759	115.510445	504.280609	-65.556862	59.531673	435.841583	-80.709648	154.091858	478.449280	-103.833458	-17.714790	333.843353	-102.835258	32.671379	343.490112	-179.610794	-68.510521	307.849213	-159.060898	193.685944	245.404648	-132.226639	82.829407	233.444717	-68.360870	128.299026	964.210266	-459.571472	216.272293	949.339355	-462.738983	226.700333	1002.640625	-453.544220	297.995331	926.874695	-445.632721	395.874390	862.398010	-419.475250	328.526550	770.359314	-443.110016	300.944855	688.229187	-437.344849	271.829895	608.413452	-421.132111	355.691895	672.278748	-412.958923	236.088364	485.015045	-403.094177	264.945740	497.435455	-319.728149	190.198257	435.648407	-365.643280	465.433350	468.241699	-368.270325	367.980743	428.721100	-437.210632	-223.989700	893.215210	-249.664841	-11.894520	84.949409	-453.924072	-20.319515	81.021042	-53.547184	
3	0.0150	504.921478	1345.773560	-114.912888	513.217468	1348.063721	-395.414276	454.137970	1385.711670	-246.257797	469.280090	1225.082886	-251.348450	589.894531	1072.811768	-49.220310	728.452209	847.395874	-84.805374	596.372986	1075.735229	-454.677795	0.000000	0.000000	-0.000000	-65.463974	1155.491089	-243.373428	112.798141	1156.771118	-407.333893	102.045425	1124.066772	-93.134384	99.237007	1100.870117	-397.686798	114.424599	1075.085205	-119.246384	-27.111420	1182.770142	-189.395996	-32.995384	1194.668701	-295.144958	23.463343	1015.169495	-66.410034	32.696499	1046.889648	-459.210266	94.759850	895.087830	-48.942032	148.465134	832.151550	-53.662151	202.394745	759.976685	-66.412071	192.318176	865.995483	-64.069588	243.016846	662.492126	-88.567955	161.467575	575.470947	-60.096161	115.530701	504.314270	-65.541374	59.540192	435.891449	-80.704796	155.054077	479.221497	-103.818474	-17.711620	333.875366	-102.787735	32.544193	343.504242	-179.679184	-68.918297	308.267792	-158.867950	193.545639	245.450958	-132.134720	82.815620	233.481888	-68.356621	128.303223	964.215759	-459.569427	217.554810	949.630737	-463.532227	229.283844	1001.394592	-457.067139	297.995422	926.892090	-445.646423	395.887360	862.442810	-419.494293	328.559540	770.388184	-443.100800	301.199127	688.310364	-437.329742	271.900513	608.438904	-421.128571	355.744751	672.295715	-412.960724	236.875198	484.942627	-402.796265	265.067810	497.329651	-319.708893	189.923553	435.973755	-365.565491	465.799194	468.117218	-368.435333	368.368561	428.766144	-437.257111	-224.051773	893.188660	-249.862457	-11.897532	84.940140	-453.930389	-20.323839	80.993324	-53.544163	
4	0.0200	505.160858	1345.847290	-114.934341	515.700745	1348.892578	-395.338684	454.211700	1385.289062	-246.172806	469.353027	1225.066406	-251.383026	589.579163	1072.882324	-48.978951	728.505798	847.311462	-84.860680	596.499817	1075.719727	-454.645905	0.000000	0.000000	-0.000000	-65.277534	1155.295288	-243.362686	113.510223	1156.865112	-408.075439	102.010025	1124.005981	-93.162292	98.679070	1100.832031	-397.289185	114.460793	1075.084595	-119.233719	-27.085205	1182.706177	-189.424759	-33.600613	1194.893066	-294.833344	23.368717	1014.970032	-66.317230	32.473457	1047.019287	-459.390778	94.803810	895.087524	-48.987850	148.463394	832.102478	-53.658932	202.425858	759.876709	-66.245941	192.354324	866.000854	-64.065643	243.057770	662.504272	-88.641129	161.502960	575.483154	-60.217728	115.517921	504.342590	-65.657837	59.565563	435.922455	-80.743690	155.120468	479.252686	-103.851265	-17.699600	333.949402	-102.834572	32.539112	343.516693	-179.677551	-68.996803	308.282867	-158.858032	193.515060	245.491852	-132.157700	82.797241	233.513535	-68.418327	128.311234	964.225769	-459.566559	218.891434	950.300476	-463.337341	229.081802	1002.555420	-456.322144	297.961304	926.852722	-445.615021	396.229584	862.526245	-419.428223	328.624084	770.468689	-443.070709	301.334564	688.318604	-437.277130	271.873138	608.341187	-421.081207	355.784302	672.309082	-412.855072	236.767639	485.021545	-402.888702	265.101379	497.396179	-319.729706	189.904312	435.947937	-365.552795	465.738831	467.967926	-368.396240	367.988098	429.537262	-438.085754	-224.152130	893.190613	-249.839966	-11.790501	84.564674	-453.998413	-20.400520	80.959122	-53.491459	
5	0.0250	505.219238	1345.881348	-114.928207	515.701050	1348.907837	-395.367676	454.180573	1385.251709	-246.145462	469.388702	1225.072510	-251.431900	589.656860	1072.878174	-49.054310	728.497253	847.288635	-84.908249	596.314087	1075.639160	-454.681366	0.000000	0.000000	-0.000000	-65.393143	1155.532959	-243.508179	114.542130	1157.017334	-409.149353	102.085197	1124.081421	-93.097107	98.995415	1100.755737	-397.306396	114.466850	1075.055786	-119.230736	-27.079699	1182.768677	-189.373108	-34.074726	1195.067871	-294.588226	23.552931	1015.322693	-66.552673	32.548077	1046.976807	-459.215118	94.818504	895.073120	-48.980579	148.560455	832.193115	-53.711571	202.504135	760.052490	-66.678001	192.374084	866.004456	-64.064575	243.121078	662.532043	-88.501022	161.567398	575.529968	-60.051975	115.564079	504.416229	-65.645142	59.559559	435.974884	-80.729767	155.144287	479.288849	-103.831009	-17.696316	333.976166	-102.843567	32.653744	343.597473	-179.609940	-68.965866	308.374664	-158.869293	193.507431	245.521210	-132.160080	82.811661	233.554428	-68.329704	128.322647	964.239929	-459.562927	218.885803	950.333740	-463.334534	229.193222	1001.818176	-456.814941	297.947540	926.891541	-445.624969	396.263489	862.573669	-419.428284	328.704193	770.569092	-443.033478	301.357635	688.422363	-437.293365	272.009979	608.426331	-421.074402	355.836823	672.351624	-412.810394	236.857635	485.112549	-402.884033	265.171265	497.417572	-319.725983	189.987167	436.094971	-365.544403	466.217224	468.130280	-368.440399	370.776245	429.507477	-438.224792	-224.087585	893.160583	-249.855179	-13.114210	85.839439	-454.017639	-20.315014	80.926727	-53.671043	
